/* XPM */
static char *_f99c45aef6b4e9ff73f7fbfeda46cc48iDheu1o9wDeEYtR[] = {
/* columns rows colors chars-per-pixel */
"112 112 21 1 ",
"  c None",
". c #222222",
"X c #2B2929",
"o c #302C2B",
"O c gray20",
"+ c #3B3332",
"@ c #483B3A",
"# c #62232F",
"$ c #243F4C",
"% c #5F2D56",
"& c #775C55",
"* c #8F4029",
"= c #DA4E38",
"- c #C56025",
"; c #9F294E",
": c #AA8D7A",
"> c #417089",
", c #3C9F9C",
"< c #5698CC",
"1 c #D3BFA9",
"2 c #FDF7ED",
/* pixels */
"...@....@@@.@......@....@@@.@......@....@@@.@...     .....................................................      ",
".@@@@@@@@@@@@@@&.@@@@@@@@@@@@@@&.@@@@@@@@@..&@@&        .................................................       ",
"@@@@@@@@@@@@@@@&@@@@@@@@@@@@@@@&@@@@@@@@@@@@.@@&      .. .  . ....  . .. .  . ......  .. . .. .... .  ..        ",
"@@@@@@@@@@@@@@@&@@@@@@@@@@@@@@@&@&&@@@@@@@@@@@@&            .     . .    .    .    . .   .  . .    .            ",
".@@@@@@@@@@@@@@&.@@@&@@@@@@@@@@&...@@@@@@@@@@@@&          .     .     .     .   . .   .     .   .    .          ",
"@@@@@@@@@@@@@@@&@@&&..&@@@@@@@@&@@@@@@@@@@@@@@@&       .     .                     .          .   .             ",
".@@@@@@@@@@@@@@@.@..@@..&@@@@@@@.@@@@@@@@@@@@@@@                                                                ",
".@@@@@@@@@@@@@@&..@@@@@@.@@@@@@&.@@@@@@@@@@@@@@&                                                                ",
".@@@@@@@@@@@@@@@.@@@@@@@@.&&@@@@.@@@@@@@@@@@@@@@                                                                ",
"@@@@@@@@@@@@@@@&@@@@@@@@.&..&&&&@@@@@@@@@@@@@@@&                                                                ",
"@@@@@@@@@@@@@@@&@@@@@@@&.@@@...&@@@@@@@@&@@@@@@&                                                                ",
".@@@@@@@@@@@@@@@.@@@@@&.@@@@@@@@.@@@@@@@.&@@@@@@                                                                ",
".@@@@@@@@@@@@@@@.@@@@@.@@@@@@@@@.@@@@@@&..@@@@@@                                                                ",
".@@@@@@@@@@@@@@&.@@@@&.@@@@@@@@&.@@@@@@.@@@@@@@&                                                                ",
".@@@@@@@@@@@@@@&.@@@@..@@@@@@@@&.@@@@@@.@@@@@@@&                                                                ",
"&&&@@&@&&&&@&&&&&&&@&&@&&&&@&&&&&&&@@&@&&&&@&&&&                                                                ",
"...@....@@@.@......@....@@@.@......@....@@@.@......@......................................................@.@...",
".@@@@@@@@@@@@@@&.@@@.&@@@@@@@@@&.@@@@@@@@@@@@@@&.@@@@@@@.................................................@@@@@@&",
"@@@@@@@@@@@@@@@&@@@&@.@@@@@@@@@&@@@@@@@@@@@@@@@&@@@@@@..@..@.@....@@.@..@@@@.@......@@..@.@..@....@.@@..@@@@@@@&",
"@@@@@@@@@@@@@@@&&@@.@@@@@@@@@@@&@@@@@@@@@@@@@@@&@@@@@@@@@@.@.@@&@@.@.@.@@.@@.@.@@@..@.@@@.@@.@.@@@@.@@@.@@@@@@@&",
".@@@@@@@@@@@@@@&.@@@@@@@@@@@@@@&.@@@@@@@@@@@@@@&.@@@@@@.@@.@@@@&.@@@@@.@@@@@.@@@.@.@@@.@@@@@.@@@.@@@@.@@.@@@@@@&",
"@&&@@@@@@@@@@@@&@@@@@@@@@@@@@@@&@@@@@@@@@@@@@@@&@@@@@@@.@@@@@.@&@@@@@@@@@@@@@@@&@@@.@@@@@@@@@@.&@@.@@@@@@@@@@@@&",
"...&&@@@@@&@@@@@.@@@@@@@@@@@@@@@.@@@@@@@@@@@@@@@.@@@@@@@@@@@@@@@.@@@@@@@@@@@@@@@.@@@@@@@@@@@@@@@.@@@@@@@@@@@@@@@",
".....&&@@&.@@@@&.@@@@@@@@@@@@@@&.@@@@@@&&&@@@@@&.@@@@@@@@@@@@@@&.@@@@@@@@@@@@@@&.@@@@@@@@@@@@@@&.@@@@@@@@@@@@@@&",
".......&..@@@@@@.@@@@@@@@@@@@@@@.@@@@@....&@@@@&.@@@@@@@@@@@@@@@.@@@@@@@@@@@@@@@.@@@@@@@@@@@@@@@.@@@@@@@@@@@@@@@",
"..@@@...@@@@@@@@.@@@@@@@@@@@@@@@@@@@@@@....@@@@.@@@@@@@@@@@@@@@&@@@@@@@@@@@@@@@&@@@@@@@@@@@@@@@&@@@@@@@@@@@@@@@&",
"..@@@@..&@@@@@@&.@@@@@@@@@@@@@@&@@@@@@@@...@&&@.@@@@@@@@@@@@@@@&@@@@@@@@@@@@@@@&@@@@@@@@@@@@@@@&@@@@@@@@@@@@@@@&",
"..&@@&.@.@@@@@@@.@@@@@@@@@@@@@@@.@@@@&&@@@&&.....@@@@@@@@@@@@@@@.@@@@@@@@@@@@@@@.@@@@@@@@@@@@@@@.@@@@@@@@@@@@@@@",
"...&&..@@@@@@@@@.@@@@@@@@@@@@@@@.@@@@..&@@.......@@@@@@@@@@@@@@@.@@@@@@@@@@@@@@@.@@@@@@@@@@@@@@@.@@@@@@@@@@@@@@@",
"......@@@@@@@@@&.@@&.@@@@@@@@@@&.@@@@@..@@.......@@@@@@@@@@@@@@&.@@@@@@@@@@@@@@&.@@@@@@@@@@@@@@&.@@@@@@@@@@@@@@&",
"......@@@@@@@@@&.@&.@@@@@@@@@@@&.@@@@@@@@@@@@....@@@@@@@@@@@@@@&.@@@@@@@@@@@@@@&.@@@@@@@@@@@@@@&.@@@@@@@@@@@@@@&",
"&&&..&@&&&&@&&&&&&&..&@&&&&@&&&&&&&@@&@&&&&@&...&&&@@&@&&&&@&&&&&&&@@&@&&&&@&&&&&&&@@&@&&&&@&&&&&&&@@&@&&&&@&&&&",
"...@........@...........@@@.@......@....@@@.@......@....@@@.@...     ......................     ...@....@@@.@...",
".@@@@@@@.......&....&&@@@@@@@@@&.@@@@@@@@@@@@@@&.@@@@@@@@@@@@@@&     ......................     .@@@@@@@@@@@@@@&",
"@@@@@@@@@@............@@&&@@@@@&@@@@@@@@@@@@@@@&@@@@@@@@@@@@@@@&     .........@&@@.........     @@@@@@@@@@@@@@@&",
"@@@@@@@@@@@.....@.....@@..@@@@@&@@@@@@@@@@@@@@@&@@@@@@@@@@@@@@@&     ........@@&@@@........     .@@@@@@@@@@@@@@@",
".@@@@@@@@@&....&......&@@@@@@@@&.@@@-&&&&&&-@@@&.@@@&&&&&&&&@@@&     .......@@@..@@@.......     @@@@@@@@@@@@@@@&",
"@@@@@@@@@&.....&@.......@@@@@@@&@@&&-.----&-&&@&@@&&.&..&.&&&&@&     .......@@@&@@@@.......     .@@@@@@@@@@@@@@&",
".@@@@@@@@..@@..@........&@@@@@@@.&&.-......-&.&@.&&..&....&.&.&@     .........@@.@.........     @@@@@@@@@@@@@@@&",
".@@@@@@@@@@@&..&.@@&.....@@@@@@&..&.-.----.-...&..&.......&....&     .......@@@&.@@@.......     @@@@@@@@@@@@@@@@",
".@@@@@@@@&&@...@.@@.@@@..@@@@@@@....*......*...@...............@     ........@@@.@@........     @@@@.@@@@@@@@@@&",
"@@@@@@@@...@@@@&@@@@@@@@@@@@@@@&@...*.****.*...@@..............@     .......@@@&@@@@.......     .@@@@@@@@@@@@@@@",
"@@@@@@@@@..@@@@&@@@@@@@@@@@@@@@&@&..#......#..&&@&............&&     .........@&@@.........     .@@@.@@@.@@@@.@&",
".@@@@@@@@@@@@@@@.@@@@@@@@@@@@@@@.@&&#.####.#&&@@.@&&........&&@@     ........@@@.@@........     ..@...@@..@.@.@@",
".@@@@@@@@@@@@@@@.@@@@@@@@@@@@@@@.@@@&&&&&&&&@@@@.@@@&&&&&&&&@@@@     .......@@@@.@@@.......     ...............@",
".@@@@@@@@@@@@@@&.@@@@@@@@@@@@@@&.@@@@@@@@@@@@@@&.@@@@@@@@@@@@@@&     .........@&.@.........     ...............@",
".@@@@@@@@@@@@@@&.@@@@@@@@@@@@@@&.@@@@@@@@@@@@@@&.@@@@@@@@@@@@@@&     .......@@@&.@@@.......     ...............@",
"&&&@@&@&&&&@&&&&&&&@@&@&&&&@&&&&&&&@@&@&&&&@&&&&&&&@@&@&&&&@&&&&     .&&&&&@&&&&&&&@@&@@@@&     ................",
"...@....@@@.@......@....@@@.@......@....@@@.@......@....@@@.@...     ..........&...........                     ",
".@@@@@@@@@@@@@@&.@@@@@@@@@@@@@@&.@@@@@@@@@@@@@@&.@@@@@@@@@@@@@@&     ........@@@@@@@.......                     ",
"@@@@@@@@@@@@@@@&@@@@@@@@@@@@@@@&@@@@@@@@@@@@@@@&@@@@2@@@@@@2@@@&     .......@@@&@.@........                     ",
"@@@...@@@@...@@&@@@...@@@@...@@&@@@.2.@@@@.2.@@&@@@@2@@@@@@2@@@&     .......@@@&@@@@.......                     ",
".@.....@@.....@&.@.....@@.....@&.@..2..@@..2..@&.@.,,2.@@.,,2.@&     .........@..@@........                     ",
"@@&...&@@&...&@&@@&.2.&@@&.2.&@&@@&,,2&@@&,,2&@&@@&,,2&@@&,,2&@&     .......@@@&@@@@.......                     ",
".@@&&&@@@@&&&@@@.@@&&&@@@@&&&@@@.@@&&&@@@@&&&@@@.@@&&&@@@@&&&@@@     .......@.@@.@@........                     ",
".@@@@@@@@@@@@@@&.@@@@@@@@@@@@@@&.@@@@@@@@@@@@@@&.@@@@@@@@@@@@@@&     .......@@@&.@.........                     ",
".@@@@@@@@@@@@@@@.@@@@@@@@@@@@@@@.@@@@@@@@@@@@@@@.@@@2@@@@@@2@@@@     ........@@@.@@@.......         .           ",
"@@@...@@@@...@@&@@@...@@@@...@@&@@@.2.@@@@.2.@@&@@@@2@@@@@@2@@@&     .......@@@&@@@@.......     .               ",
"@@.....@@.....@&@@.....@@.....@&@@..2..@@..2..@&@@.,,2.@@.,,2.@&     .......@.@&@@@........     .   .   .    .  ",
".@&...&@@&...&@@.@&.2.&@@&.2.&@@.@&,,,&@@&,,2&@@.@&,,2&@@&,,2&@@     ........@@@.@.........     .. ...  .. . .  ",
".@@&&&@@@@&&&@@@.@@&&&@@@@&&&@@@.@@&&&@@@@&&&@@@.@@&&&@@@@&&&@@@     ........@@@.@.........     ............... ",
".@@@@@@@@@@@@@@&.@@@@@@@@@@@@@@&.@@@@@@@@@@@@@@&.@@@@@@@@@@@@@@&     .......@@@&.@@@.......     ............... ",
".@@@@@@@@@@@@@@&.@@@@@@@@@@@@@@&.@@@@@@@@@@@@@@&.@@@@@@@@@@@@@@&     ........@@&.@@........     ............... ",
"&&&@@&@&&&&@&&&&&&&@@&@&&&&@&&&&&&&@@&@&&&&@&&&&&&&@@&@&&&&@&&&&     .&&&&&@&&&&&&&@@&@@@@&     ................",
"                                                                     ..........&...........                     ",
"                                                                     ........@@@@@@@.......                     ",
"   ;========;                      ><<<<<<<<>                        .......@@@&@@@........                     ",
"   ==========                      <<<<<<<<<<                        .........@&@.@@.......                     ",
"   ==========      ;========;      <<<<<<<<<<      ><<<<<<<<>        ........@@..@@@.......                     ",
"  .==========.    .==========.    .<<<<<<<<<<.    .<<<<<<<<<<.       .......@@@&@@@........                     ",
"  .==========.    .==========.    .<<<<<<<<<<.    .<<<<<<<<<<.       .........@@.@.........                     ",
"  .==========.    .==========.    .<<<<<<<<<<.    .<<<<<<<<<<.       .......@@@&.@@@.......                     ",
"  .==========.    .==========.    .<<<<<<<<<<.    .<<<<<<<<<<.       ........@@@.@@........                     ",
"  .==========.    .==========.    .<<<<<<<<<<.    .<<<<<<<<<<.       .......@@@&@@@@.......                     ",
"  .;========;.    .==========.    .><<<<<<<<>.    .<<<<<<<<<<.       .........@&@@.........                     ",
"  .%%%%%%%%%%.    .==========.    .$$$$$$$$$$.    .<<<<<<<<<<.       ........@@@.@@........                     ",
"  .%%%%%%%%%%.    .;========;.    .$$$$$$$$$$.    .><<<<<<<<>.       .......@@@@.@@@.......                     ",
"   ..........      ..........      ..........      ..........        .........@&.@.........                     ",
"                                                                     .......@@@&.@@@.......                     ",
"                                                                     .&&&&&@&&&&&&&@@&@@@@&                     ",
"................                                                     .@@@@@.@......@.......                     ",
".XXXXXXXXXXXXXX.                                                     .@@@@@@@@@&.@@@@@@@@@.                     ",
".XXXXXXXXXXXXXX&                           ...    ...                .@@@@@@@@@&@@@@@@@@@@.                     ",
".+@@...X.X.X.X.&                          .===.  .===.               .@@@@@@@@@&@@@@@@@@@@.                     ",
".+@@@....X...X.&                         .=====..=====.              .@@@@@@@@@&.@@@@@@@@@.                     ",
".+@@@......X...&                         .=====..=====.              .@@@@@@@@@&@@@@@@@@@@.                     ",
".+@@@o++........                         .;===;..;===;.              .@@@@@@@@@@.@@@@@@@@@.                     ",
".+@@@o+++......&      1:::               ..;;;.  .;;;..              .@@@@@@@@@&.@@@@@@@@@.                     ",
".++++o+++.......     1111::             .-*...    ...*-.             .@@@@@@@@@@.@@@@@@@@@.                     ",
".+@@@o+++Xoo...&     .1..1:            .-*.          .*-.            .@@@@@@@@@&@@@@@@@@@@.                     ",
".+@@@o+++Xooo..&     .1..11           ....            ....           .@@@@@@@@@&@@@@@@@@@@.                     ",
".+@@@o+++Xooo...     1.111.          .:111.          .:111.          .@@@@@@@@@@.@@@@@@@@@.                     ",
".+@@@ooooXoooXX.     1 1...        ..&&&&&&..      ..&&&&&&..        .@@@@@@@@@@.@@@@@@@@@.                     ",
".+@@@o+++XoooXX&                  .:::1:11111.    .:::1:11111.       .@@@@@@@@@&.@@@@@@@@@.                     ",
".+@@@o+++XXXXXX&                  ............    ............       .@@@@@@@@@&.@@@@@@@@@.                     ",
"&&&&.&.&&&&.&&&&                                                     .&&&&&@&&&&&&&@@&@@@@&                     ",
"     OOOOOOOOOOOOOOOOOO OOOOOOOOOOOOOOOOOOO                          ......................                     ",
"                                                                     ......................                     ",
"     OOOOOO OOOOOOOO OOOOO OOOOOOOOO OOOOOO                          ......@@.@..@.@.@.....                     ",
"     OOOOOO OOOOOOOO OOOOO OOOOOOOOO OOOOOO                          .@@@@.@@@@&@@@@.@@@@@.                     ",
"                                                                     .@@@@@@@.@&.@@@@@@@@@.                     ",
"      OOOOOOO OOO OOOO OOOOOO OOO OOOOOOO                            .@@@@@@@@@&@@@@@@@@@@.                     ",
"                                                                     .@@@@@@@@@@.@@@@@@@@@.                     ",
"                                                                     .@@@@@@@@@&.@@@@@@@@@.                     ",
"                                                                     .@@@@@@@@@@.@@@@@@@@@.                     ",
"                                                                     .@@@@@@@@@&@@@@@@@@@@.                     ",
"                                                                     .@@@@@@@@@&@@@@@@@@@@.                     ",
"                                                                     .@@@@@@@@@@.@@@@@@@@@.                     ",
"                                                                     .@@@@@@@@@@.@@@@@@@@@.                     ",
"                                                                     .@@@@@@@@@&.@@@@@@@@@.                     ",
"                                                                     .@@@@@@@@@&.@@@@@@@@@.                     ",
"                                                                     .&&&&&@&&&&&&&@@&@@@@&                     "
};
