/* XPM */
static char *_32eee38b5f5473ae6d7731f3d7972f4q07GJn3LqDM7QsTg[] = {
/* columns rows colors chars-per-pixel */
"192 64 6 1 ",
"  c None",
". c #222222",
"X c #483B3A",
"o c #775C55",
"O c #AA8D7A",
"+ c #D3BFA9",
/* pixels */
"     ......          ......................................     ......OOOO............................................OOOO......     .................OOOO.................................     ",
"     .oOOo.          .oOOOOO.OOOOOOOO.OOOO.OOOOOOOO.OOOOOo.     OOOOOO.OO.OOOOOOOOOOO.OOOO.OOOO.OOOOO.OOOO.OOoOOOOOOOO.OO.OOOOOO     .oOOOOOOOO.OOOOO.OOOO.OOOO.OOOOOOO.OOOoOOO.OOOOOOOOOo.     ",
"     .OOOO.          .OOOOOO.OOOOOOOO.OOOO.OOOOOOOO.OOOOOO.     OOOOOOOXXOOOOOOOOOOOO.OOOO.OOOO.OOOOO.OOOO.OOOOOOOOOOOOXXOOOOOOO     .OOOOOOOOO.OOOOO.OOOO.OOOO.OOOOOOO.OOOOOOO.OOOOOOOOOO.     ",
"     .OOOO.          .OOOOOO.OOOOOOOO.OOOO.OOOOOOOO.OOOOOO.     OOOOOOOXXOOOOOOOOOOOO.OOOO.OOOO.OOOOO.OOOO.OOOOOOOOOOOOXXOOOOOOO     .OOOOOOOOO.OOOOO.OOOO.OOOO.OOOOOOO.OOOOOOO.OOOOOOOOOO.     ",
"     .OOOO.          .++++++.++++++++.OOOO.++++++++.++++++.     ++++++.OO.+++++++++++.OOOO.++++.+++++.OOOO.+++++++++++.OO.++++++     .+++++++++.+++++.++++.++++.+++++++.+++++++.++++++++++.     ",
"     .OOOO.          .....oo.oooooooo.OOOO.oooooooo.oo.....     ooooo.OOOO.oooooooooo.OOOO.oooo.ooooo.OOOO.oooooooooo.OOOO.ooooo     .....Xoooo.ooooo.oooo.oooo.ooooooo.ooooooo.oooooX.....     ",
"     .OOOO.          .OOOO.X.XXXXXXXX.OOOO.XXXXXXXX.X.OOOO.     XXXXX.OOOO.XXXXXXXXXX.OOOO.XXXX.XXXXX.OOOO.XXXXXXXXXX.OOOO.XXXXX     .OOOO.XXXX.XXXXX.XXXX.XXXX.XXXXXXX.XXXXXXX.XXXXX.OOOO.     ",
"     .OOOO.          .OOOO............OOOO............OOOO.     ......OOOO............++++.XXXX.XXXXX.++++............OOOO......     .OOOO.XXXX.XXXXX.XXXX.XXXX.XXXXXXX.XXXXXXX.XXXXX.OOOO.     ",
"     .++++.          .OOOO.oooooooooo.OOOO.oooooooooo.OOOO.     o.ooo.++++.oo.ooooooo......................ooooooo.oo.++++.ooo.o     .OOOO............................................OOOO.     ",
"     ......          .OOOO.XXXXXXXXXX.OOOO.XXXXXXXXXX.OOOO.     X.XXX......XX.XXXXXXX.OOOO............OOOO.XXXXXXX.XX......XXX.X     .OOOO............................................OOOO.     ",
"     .OOOO.          .OOOO.XXXXXXXXXX.++++.XXXXXXXXXX.OOOO.     X.XXX.OOOO.XX.XXXXXXX.OOOO............OOOO.XXXXXXX.XX.OOOO.XXX.X     .++++............................................OOOO.     ",
"     .OOOO.          .++++............................++++.     ......OOOO............OOOO............OOOO............OOOO......     .................................................++++.     ",
"     .OOOO.          ......oooo.ooooo.OOOO.ooooo.oooo......     ooooo.OOOO.oooooooooo.++++............++++.oooooooooo.OOOO.ooooo     .OOOO.................................................     ",
"     .OOOO.          .OOOO.XXXX.XXXXX.OOOO.XXXXX.XXXX.OOOO.     XXXXX.OOOO.XXXXXXXXXX......................XXXXXXXXXX.OOOO.XXXXX     .OOOO............................................OOOO.     ",
"     .OOOO.          .OOOO.XX.X.XXXXX.OOOO.XXXXX.X.XX.OOOO.     XXXXX.OOOO.XXXXXXXXXX.OOOO............OOOO.XXXXXXXXXX.OOOO.XXXXX     .OOOO............................................OOOO.     ",
"     .OOOO.          .OOOO............OOOO............OOOO.     ......OOOO............OOOO............OOOO............OOOO......     .OOOO............................................OOOO.     ",
"     .OOOO.          .OOOO............OOOO............OOOO.          .OOOO............OOOO............OOOO............OOOO.          .OOOO............OOOO......                ................",
"     .++++.          .OOOoOO.OOOOOOOOO.OO.OOOOOOOO.OOOoOOO.          .OOOoOO.OOOOOOO.OoOOO............OOOO.OOOOOOOO.OOoOOO.          .OOOO......OOOOOO.OO.OOO.OO                ......OOOOOO.OOO",
"     ......          .OOOOOO.OOOOOOOOOOXXOOOOOOOOO.OOOOOOO.          .OOOOOO.OOOOOOO.OOOOO............oOOO.OOOOOOOO.OOOOOO.          .++++......OOOOOOOXXOOOO.OO                ......OOOOOO.OOO",
"     .OOOO.          .OOOOOO.OOOOOOOOOOXXOOOOOOOOO.OOOOOOO.          .OOOOOO.OOOOOOO.OOOOO............OOOO.OOOOOOOO.OOOOOO.          ...........OOOOOOOXXOOOO.OO                ......OOOOOO.OOO",
"     .OOOO.          .OOOO++.+++++++++.OO.++++++++.+++oOOO.          .++++++.+++++++.+++++............++++.++++++++.++++++.          .OOOO......++++++.OO.+++.++                ......++++++.+++",
"     .OOOO.          .OOOOoo.oooooooo.OOOO.ooooooo.oo.OOOO.          .....Xo.ooooooo.ooooo............oooo.oooooooo.oX.....          .OOOO......ooooo.OOOO.oo.oo                ..........oo.ooo",
"     .OOOO.          .OOOO.X.XXXXXXXX.OOOO.XXXXXXX.XX.OOOO.          .OOOO.X.XXXXXXX.XXXXX............XXXX.XXXXXXXX.X.OOOO.          .OOOO......XXXXX.OOOO.XX.XX                ......OOOO.X.XXX",
"     .OOOO.          .++++............OOOO............++++.          .OOOO.X.XXXXXXX.XXXXX............XXXX.XXXXXXXX.X.OOOO.          .OOOO......XXXXX.OOOO......                ......OOOO......",
"     .OOOO.          ......oooooo.ooo.OOOO.oooooo.ooo......          .OOOO............................................OOOO.          .OOOO............OOOO.ooooo                ......OOOO.ooooo",
"     .OOOO.          .OOOO.XXXXXX.XXX.OOOO.XXXXXX.XXX.OOOO.          .OOOO............................................OOOO.          .OOOO............OOOO.XXXXX                ......OOOO.XXXXX",
"     .++++.          .OOOO.XXXXXX.XXX.OOOO.XXXXXX.XXX.OOOO.          .OOOO............................................OOOO.          .++++............++++.XXXXX                ......++++..XXXX",
"     ......          .OOOO............++++............OOOO.          .OOOO............................................OOOO.          ...........................                ................",
"     .OOOO.          .OOOO.ooo.oooooo......oo.ooooooo.OOOO.          .++++............................................++++.          .OOOO............OOOO.ooooo                ......OOOO.oooo.",
"     .OOOO.          .OOOO.XXX.XXXXXX.OOOO.XX.XXXXXXX.OOOO.          ......................................................          .OOOO............OOOO.XXXXX                ......OOOO.XXXX.",
"     .OOOO.          .OOOO.XXX.XXXXXX.OOOO.XX.XXXXXXX.OOOO.          .OOOO............................................OOOO.          .OOOO............OOOO.XXXXX                ......OOOO.XXXX.",
"     .OOOO.          .OOOO............OOOO............OOOO.          .OOOO............................................OOOO.          .OOOO............OOOO......                ......OOOO......",
"     .OOOO.          .OOOO............OOOO............OOOO.          .OOOO............................................OOOO.     ......................................OOOO.................     ",
"     .OOOO.          .OOOO.OOOOOOOOoO.OOOO.OOOOOOOOOO.OOOO.          .OOOoOOO.OOOO.OOOOOOo............oOOOOOO.OOOO.OOOoOOO.     OOOOOOOOOO......................OO.OOO.OO.OOOOOO......OOOO.     ",
"     .OOOO.          .OOOO.OOOOOOOOOO.OOOO.OOOOOOOOOO.OOOO.          .OOOOOOO.OOOO.OOOOOOO............OOOOOOO.OOOO.OOOOOOO.     OOOOOOOOOO......................OO.OOOOXXOOOOOOO......OOOO.     ",
"     .++++.          .OOOO.OOOOOOOOOO.OOOO.OOOOOOOOOO.OOOO.          .OOOOOOO.OOOO.OOOOOOO............OOOOOOO.OOOO.OOOOOOO.     OOOOOOOOOO......................OO.OOOOXXOOOOOOO......OOOO.     ",
"     .oooo.          .++++.++++++++++.+o++.++++++++++.++++.          .+++++++.++++.+++++++............+++++++.++++.+++++++.     ++++++++++......................++.+++.OO.++++++......OOOO.     ",
"     .XXXX.          .oooo.oooooooooo.oooo.oooooooooo.oooo.          .....Xoo.oooo.ooX....................Xoo.oooo.ooX.....     oooooo..........................oo.oo.OOOO.ooooo......++++.     ",
"     .XXXX.          .XXXX.XXXXXXXXXX.XXXX.XXXXXXXXXX.XXXX.          .OOOO.XX.XXXX.XX.OOOO............OOOO.XX.XXXX.XX.OOOO.     XXXXX.OOOO......................XX.XX.OOOO.XXXXX...........     ",
"     ......          ......................................          .OOOO............OOOO............OOOO............OOOO.     ......OOOO............................OOOO.XXXXX......OOOO.     ",
"     .oooo.          .ooooooooooooooooo.oooooo..oooooooooo.          .OOOO.oooooooooo.OOOO............OOOO.oooooooooo.OOOO.     ooooo.OOOO......................ooooo.OOOO............OOOO.     ",
"     .XXXX.          .XXXXXXXXXXXXXXXXX.XXXXXX.XXXXXXXXXXX.          .OOOO.XXXXXXXXXX.OOOO............OOOO.XXXXXXXXXX.OOOO.     XXXXX.OOOO......................XXXXX.OOOO............OOOO.     ",
"     .XXXX.          .XXXXXX.XXXXXX.XXX.XXXXXX.XXXX.XXXXXX.          .OOOO.XXXXXXXXX..OOOO............OOOO..XXXXXXXXX.OOOO.     XXXX..++++......................XXXXX.++++............++++.     ",
"     ......          ......................................          .OOOO............++++............++++............OOOO.     ...........................................................     ",
"     .oooo.          .oooo.oo.oooo.ooooooo.ooooooo.oo.oooo.          .++++.oooooooooo......................oooooooooo.++++.     .oooo.OOOO......................ooooo.OOOO............OOOO.     ",
"     .XXXX.          .XXXX.XX.XXXX.XXXXXXX.XXXXXXX.XX.XXXX.          ......XXXXXXXXXX.OOOO............OOOO.XXXXXXXXXX......     .XXXX.OOOO......................XXXXX.OOOO............OOOO.     ",
"     .XXXX.          .XX.X.XX.XXXX.XXXXX.X.X.XXXXX.XX.X.XX.          .OOOO.X.XXXXXXXX.OOOO............OOOO.XXXXXXXX.X.OOOO.     .XXXX.OOOO......................XXXXX.OOOO............OOOO.     ",
"     ......          ......................................          .OOOO............OOOO............OOOO............OOOO.     ......OOOO............................OOOO............OOOO.     ",
"................     ......................................     ......OOOO............OOOO............OOOO............OOOO......     .OOOO............................................OOOO.     ",
".oOOOOOOOO.OOOO.     .oOOOO.OOOOOOO.oOOOOOOO.OOOOOOO.OOOOo.     OOOOOO.OO.OOO.OOOOOOo.OOOO.OOOOOOOOoO.OOOO.OOOOOOO.OOO.OO.OOOOOO     .OOoO.OOOOOOOOO.oOOOOOO.OOOOOOOO.OOOO.OOOOOoOOOO.OOOO.     ",
".OOOOOOOOO.OOOO.     .OOOOO.OOOOOOO.OOOOOOOO.OOOOOOO.OOOOO.     OOOOOOOXXOOOO.OOOOOOO.OOOO.OOOOOOOOOO.OOOO.OOOOOOO.OOOOXXOOOOOOO     .OOOO.OOOOOOOOO.OOOOOOO.OOOOOOOO.OOOO.OOOOOOOOOO.OOOO.     ",
".OOOOOOOOO.OOOO.     .OOOOO.OOOOOOO.OOOOOOOO.OOOOOOO.OOOOO.     OOOOOOOXXOOOO.OOOOOOO.OOOO.OOOOOOOOOO.OOOO.OOOOOOO.OOOOXXOOOOOOO     .OOOO.OOOOOOOOO.OOOOOOO.OOOOOOOO.OOOO.OOOOOOOOOO.OOOO.     ",
".+++++++++.++++.     .+++++.+++++++.+++o++++.+++++++.+++++.     ++++++.OO.+++.+++++++.++++.++++++++++.++++.+++++++.+++.OO.++++++     .++++.+o+++++++.+++++++.++++++++.OOOO.++++++++++.++++.     ",
".ooooooooo.oooo.     .ooooo.ooooooo.oooooooo.ooooooo.ooooo.     ooooo.OOOO.oo.ooooooo.oooo.oooooooooo.oooo.ooooooo.oo.OOOO.ooooo     .oooo.ooooooooo.ooooooo.oooooooo.OOOO.oooooooooo.oooo.     ",
".XXXXXXXXX.XXXX.     .XXXXX.XXXXXXX.XXXXXXXX.XXXXXXX.XXXXX.     XXXXX.OOOO.XX.XXXXXXX.XXXX.XXXXXXXXXX.XXXX.XXXXXXX.XX.OOOO.XXXXX     .XXXX.XXXXXXXXX.XXXXXXX.XXXXXXXX.OOOO.XXXXXXXXXX.XXXX.     ",
"................     ......................................     XXXXX.OOOO............................................OOOO.XXXXX     .................................OOOO.................     ",
".oooooo.ooooooo.     .ooooooo.ooooooooo.oooooo.ooo.ooooooo.     ......OOOO.oooooooo.oooooooooo.oooooooo.oooooo.oooooo.OOOO......     .oooooo.oo.ooooooo.oooooo.oooooo.OOOO.ooo.ooooooooooo.     ",
".XXXXXX.XXXXXXX.     .XXXXXXX.XXXXXXXXX.XXXXXX.XXX.XXXXXXX.     ......OOOO.XXXXXXXX.XXXXXXXXXX.XXXXXXXX.XXXXXX.XXXXXX.OOOO......     .XXXXXX.XXXXXXXXXX.XXXXXX.XXXXXX.OOOO.XXX.XXXXXXXXXXX.     ",
".XX.XXX..XXXXXX.     .XXXXXXX.XXXXX.XXX.XXXXXX.XXX.XXXXXXX.     ......++++.XXXXXXXX.XXX.XXXXXX.XXXX.XXX.XXXXXX.XXXXXX.++++......     .XX.XXX.XXXXXX.XXX.XXXXXX.XXXX.X.++++.XXX.XX.XXXXXXXX.     ",
"................     ......................................     ................................................................     ......................................................     ",
".ooo.ooooo.oooo.     .oooo.ooooooo.ooooooo.oooooooooo.oooo.     ......OOOO.ooooo.ooooooo.ooooooooo.ooooooo.oooooooooo.OOOO......     .ooo.oooooooo.ooooooo.ooooooo.oo.OOOO.ooooo.oooo.oooo.     ",
".XXX.XXXXX.XXXX.     .XXXX.XXXXXXX.XXXXXXX.XXXXXXXXXX.XXXX.     ......OOOO.XXXXX.XXXXXXX.XXXXXXXXX.XXXXXXX.XXXXXXXXXX.OOOO......     .XXX.XXXXXXXX.XXXXXXX.XXXXXXX.XX.OOOO.XXXXX.XXXX.XXXX.     ",
".XXX.XXX.X.X.XX.     .XXXX.XX.XXXX.XXXXX.X.XXXXXXX.XX.XXXX.     ......OOOO.XXXXX.X.XXXXX.XXXXXXXXX.XXXXX.X.XXXXXXXXXX.OOOO......     .XXX.XXX.XXXX.XXXXX.X.X.XXXXX.XX.OOOO.X.XXX.XXXX.X.XX.     ",
"................     ......................................     ......OOOO............................................OOOO......     .................................OOOO.................     "
};
